g weapon_16008
v 0.004420181 -0.004562865 -0.5558472
v 0.009185761 0.001970864 0.5323825
v 0.01095375 0.001970686 -0.5558472
v 0.004420368 -0.002794472 0.5323825
v 0.004420368 0.006736256 0.5323825
v 0.01095375 0.001970686 -0.5558472
v 0.009185761 0.001970864 0.5323825
v 0.004420181 0.008504238 -0.5558472
v 0.004420364 0.001970888 0.5045971
v 0.004420367 -0.01687413 0.520883
v 0.02326533 0.001970862 0.520883
v 0.02326533 0.001970862 0.520883
v 0.004420367 0.02081588 0.520883
v 0.004420367 0.02081588 0.520883
v 0.004420377 0.001970873 0.5886374
v -0.01442459 0.001970862 0.520883
v 0.004420367 -0.01687413 0.520883
v 0.02326533 0.001970862 0.520883
v 0.004420367 -0.01687413 0.520883
v 0.004420377 0.001970873 0.5886374
v 0.004420367 0.02081588 0.520883
v -0.01442459 0.001970862 0.520883
v 0.004420364 0.001970888 0.5045971
v 0.004420367 0.02081588 0.520883
v -0.01442459 0.001970862 0.520883
v 0.004420367 -0.01687413 0.520883
v -0.000345023 0.001970864 0.5323825
v 0.004420181 -0.004562865 -0.5558472
v -0.002113391 0.001970743 -0.5558472
v 0.004420368 -0.002794472 0.5323825
v -0.000345023 0.001970864 0.5323825
v 0.004420181 0.008504238 -0.5558472
v 0.004420368 0.006736256 0.5323825
v -0.002113391 0.001970743 -0.5558472
v 0.002801654 0.03974143 -0.5886376
v 0.001765086 0.001893474 -0.4202849
v 0.001232755 0.00189348 -0.5535527
v 0.00280168 0.02581945 -0.4435372
v 0.00280168 -0.02194907 -0.4435372
v 0.001232755 0.00189348 -0.5535527
v 0.001765086 0.001893474 -0.4202849
v 0.002801654 -0.03587124 -0.5886376
v 0.005397191 0.03974143 -0.5886375
v 0.004360622 0.001893474 -0.4202849
v 0.005397216 0.02581945 -0.4435372
v 0.003828291 0.001893424 -0.5535527
v 0.005397216 -0.02194907 -0.4435372
v 0.003828291 0.001893424 -0.5535527
v 0.005397191 -0.03587124 -0.5886375
v 0.004360622 0.001893474 -0.4202849
v -0.002113391 0.001970743 -0.5558472
v 0.01095375 0.001970686 -0.5558472
v 0.004420181 0.008504238 -0.5558472
v 0.004420181 -0.004562865 -0.5558472
v -0.03320827 0.002801561 -0.5886376
v 0.004639714 0.001765017 -0.4202849
v 0.004639685 0.001232665 -0.5535527
v -0.01928626 0.00280161 -0.4435372
v 0.02848225 0.002801606 -0.4435372
v 0.004639685 0.001232665 -0.5535527
v 0.004639714 0.001765017 -0.4202849
v 0.0424044 0.002801556 -0.5886376
v -0.03320827 0.005397098 -0.5886375
v 0.004639714 0.004360553 -0.4202849
v -0.01928626 0.005397146 -0.4435372
v 0.004639742 0.003828201 -0.5535527
v 0.02848225 0.005397142 -0.4435372
v 0.004639742 0.003828201 -0.5535527
v 0.0424044 0.005397092 -0.5886375
v 0.004639714 0.004360553 -0.4202849
vt 0.9614114 0.5851345
vt 0.899129 0.2041641
vt 0.8990546 0.5850716
vt 0.9614514 0.2043477
vt 0.9610698 0.2040159
vt 0.8990546 0.5850716
vt 0.899129 0.2041641
vt 0.9608173 0.5849936
vt 0.8334837 0.5243979
vt 0.7429162 0.6571251
vt 0.834004 0.6696172
vt 0.834004 0.6696172
vt 0.9256122 0.658166
vt 0.9256122 0.658166
vt 0.8334837 0.969946
vt 0.834004 0.6696172
vt 0.7429162 0.6571251
vt 0.834004 0.6696172
vt 0.7429162 0.6571251
vt 0.8334837 0.969946
vt 0.9256122 0.658166
vt 0.834004 0.6696172
vt 0.8334837 0.5243979
vt 0.9256122 0.658166
vt 0.834004 0.6696172
vt 0.7429162 0.6571251
vt 0.899129 0.2041641
vt 0.9614114 0.5851345
vt 0.8990546 0.5850716
vt 0.9614514 0.2043477
vt 0.899129 0.2041641
vt 0.9608173 0.5849936
vt 0.9610698 0.2040159
vt 0.8990546 0.5850716
vt 0.8685971 0.03383267
vt 0.7491328 0.4764194
vt 0.7493523 0.03521652
vt 0.8672757 0.4760346
vt 0.8672757 0.4760346
vt 0.7493523 0.03521652
vt 0.7491328 0.4764194
vt 0.8685971 0.03383267
vt 0.8685971 0.03383267
vt 0.7491328 0.4764194
vt 0.8672757 0.4760346
vt 0.7493523 0.03521652
vt 0.8672757 0.4760346
vt 0.7493523 0.03521652
vt 0.8685971 0.03383267
vt 0.7491328 0.4764194
vt 0.9607781 0.5549397
vt 0.9607781 0.5549397
vt 0.9608173 0.5849936
vt 0.9614114 0.5851345
vt 0.8685971 0.03383267
vt 0.7491328 0.4764194
vt 0.7493523 0.03521652
vt 0.8672757 0.4760346
vt 0.8672757 0.4760346
vt 0.7493523 0.03521652
vt 0.7491328 0.4764194
vt 0.8685971 0.03383267
vt 0.8685971 0.03383267
vt 0.7491328 0.4764194
vt 0.8672757 0.4760346
vt 0.7493523 0.03521652
vt 0.8672757 0.4760346
vt 0.7493523 0.03521652
vt 0.8685971 0.03383267
vt 0.7491328 0.4764194
vn -2.301853E-06 -0.9999987 0.001624959
vn 0.9999987 -3.539178E-06 0.001624674
vn 0.9999987 7.518324E-07 0.00162464
vn 0 -0.9999987 0.001625016
vn 5.898613E-07 0.9999987 0.001624647
vn 0.9999987 7.518324E-07 0.00162464
vn 0.9999987 -3.539178E-06 0.001624674
vn 1.127743E-06 0.9999987 0.001624664
vn -1.292196E-06 6.669397E-07 -1
vn 0.6966541 -0.6966529 -0.171312
vn 0.696654 -0.6966528 -0.1713124
vn 0.6966546 0.6966524 -0.1713118
vn 0.6966546 0.6966524 -0.1713116
vn 0.6966546 0.6966524 -0.1713116
vn 2.025307E-07 -2.83543E-06 1
vn -0.6966541 -0.6966529 -0.1713122
vn -0.6966541 -0.6966531 -0.1713117
vn 0.696654 -0.6966528 -0.1713124
vn 0.6966541 -0.6966529 -0.171312
vn -4.253145E-06 1.822776E-06 1
vn -0.6966546 0.6966525 -0.1713114
vn -0.6966546 0.6966524 -0.1713116
vn 1.167144E-06 4.168373E-07 -1
vn -0.6966546 0.6966525 -0.1713114
vn -0.6966541 -0.6966529 -0.1713122
vn -0.6966541 -0.6966531 -0.1713117
vn -0.9999987 -2.865944E-06 0.001625009
vn -2.301853E-06 -0.9999987 0.001624959
vn -0.9999987 4.296189E-06 0.001624993
vn 0 -0.9999987 0.001625016
vn -0.9999987 -2.865944E-06 0.001625009
vn 1.127743E-06 0.9999987 0.001624664
vn 5.898613E-07 0.9999987 0.001624647
vn -0.9999987 4.296189E-06 0.001624993
vn -0.9989532 0.04556062 0.004091964
vn -0.9999912 -0.00010715 0.004208088
vn -0.9999913 -0.0003184321 0.004167818
vn -0.99885 0.04772562 0.004579319
vn -0.9988822 -0.04709594 0.004038375
vn -0.9999913 -0.0003184321 0.004167818
vn -0.9999912 -0.00010715 0.004208088
vn -0.9989519 -0.04556205 0.004371791
vn 0.9989532 -0.04556055 -0.004091946
vn 0.9999912 0.0001071337 -0.004208096
vn 0.99885 -0.04772562 -0.004579317
vn 0.9999913 0.0003185318 -0.004167812
vn 0.9988822 0.04709597 -0.004038393
vn 0.9999913 0.0003185318 -0.004167812
vn 0.9989519 0.04556214 -0.004371797
vn 0.9999912 0.0001071337 -0.004208096
vn 0 0 -1
vn 0 0 -1
vn 0 0 -1
vn 0 0 -1
vn -0.0455607 -0.9989532 0.004092134
vn 0.0001070567 -0.9999912 0.004208253
vn 0.0003183484 -0.9999913 0.004167981
vn -0.04772572 -0.99885 0.004579493
vn 0.04709586 -0.9988822 0.004038529
vn 0.0003183484 -0.9999913 0.004167981
vn 0.0001070567 -0.9999912 0.004208253
vn 0.04556197 -0.9989519 0.004371946
vn 0.04556064 0.9989532 -0.004092117
vn -0.0001070637 0.9999912 -0.004208259
vn 0.0477257 0.99885 -0.004579489
vn -0.0003184558 0.9999913 -0.004167977
vn -0.04709589 0.9988822 -0.004038548
vn -0.0003184558 0.9999913 -0.004167977
vn -0.04556206 0.9989519 -0.004371954
vn -0.0001070637 0.9999912 -0.004208259
g weapon_16008_0
f 3/3/3 2/2/2 1/1/1
f 4/4/4 1/1/1 2/2/2
f 7/7/7 6/6/6 5/5/5
f 8/8/8 5/5/5 6/6/6
f 11/11/11 10/10/10 9/9/9
f 13/13/13 12/12/12 9/9/9
f 15/15/15 12/12/12 14/14/14
f 17/17/17 15/15/15 16/16/16
f 20/20/20 19/19/19 18/18/18
f 22/22/22 20/20/20 21/21/21
f 22/22/22 24/24/24 23/23/23
f 26/26/26 25/25/25 23/23/23
f 29/29/29 28/28/28 27/27/27
f 30/30/30 27/27/27 28/28/28
f 33/33/33 32/32/32 31/31/31
f 34/34/34 31/31/31 32/32/32
f 37/37/37 36/36/36 35/35/35
f 38/38/38 35/35/35 36/36/36
f 41/41/41 40/40/40 39/39/39
f 42/42/42 39/39/39 40/40/40
f 45/45/45 44/44/44 43/43/43
f 46/46/46 43/43/43 44/44/44
f 49/49/49 48/48/48 47/47/47
f 50/50/50 47/47/47 48/48/48
f 53/53/53 52/52/52 51/51/51
f 54/54/54 51/51/51 52/52/52
f 57/57/57 56/56/56 55/55/55
f 58/58/58 55/55/55 56/56/56
f 61/61/61 60/60/60 59/59/59
f 62/62/62 59/59/59 60/60/60
f 65/65/65 64/64/64 63/63/63
f 66/66/66 63/63/63 64/64/64
f 69/69/69 68/68/68 67/67/67
f 70/70/70 67/67/67 68/68/68
